<svg width="174" height="108" viewBox="0 0 174 108" fill="none" xmlns="http://www.w3.org/2000/svg">
<g clip-path="url(#clip0)" filter="url(#filter0_d)">
<g filter="url(#filter1_d)">
<path d="M130.31 29.0099L119.615 19.1341L108.921 29.0099L119.615 38.8857L130.31 29.0099Z" fill="black"/>
<path d="M130.203 29.0099L119.615 19.2328L109.027 29.0099L119.615 38.7869L130.203 29.0099Z" stroke="white"/>
</g>
<g filter="url(#filter2_d)">
<path d="M58.6633 69.134L69.358 79.0099L47.9688 98.7614L51.0374 88.8856L58.6633 69.134Z" fill="black"/>
<path d="M51.1093 88.907L58.6944 69.2616L69.2511 79.0099L48.1221 98.5211L51.1093 88.907Z" stroke="white"/>
</g>
<g filter="url(#filter3_d)">
<path d="M151.484 9.8758L140.79 0L119.4 19.7516L130.095 29.6274L151.484 9.8758Z" fill="black"/>
<path d="M151.377 9.87582L140.79 0.0987854L119.507 19.7516L130.095 29.5286L151.377 9.87582Z" stroke="white"/>
</g>
<g filter="url(#filter4_d)">
<path d="M58.0826 28.3719L54.179 12.2905L42.0771 14.7955L45.9808 30.8769L58.0826 28.3719Z" fill="#222E59"/>
<path d="M57.9924 28.319L54.1218 12.3739L42.1676 14.8484L46.0382 30.7935L57.9924 28.319Z" stroke="white"/>
</g>
<g filter="url(#filter5_d)">
<path d="M57.6974 28.2284L38.2266 17.4761L30.6192 29.223L50.09 39.9753L57.6974 28.2284Z" fill="#222E59"/>
<path d="M57.5934 28.2526L38.2524 17.5719L30.7227 29.199L50.0637 39.8796L57.5934 28.2526Z" stroke="white"/>
</g>
<g filter="url(#filter6_d)">
<path d="M84.6895 94.2737C107.953 94.2737 126.811 76.8591 126.811 55.3771C126.811 33.8951 107.953 16.4804 84.6895 16.4804C61.4262 16.4804 42.5676 33.8951 42.5676 55.3771C42.5676 76.8591 61.4262 94.2737 84.6895 94.2737Z" fill="black"/>
<path d="M84.6874 94.2039C107.909 94.2039 126.734 76.8205 126.734 55.3771C126.734 33.9336 107.909 16.5503 84.6874 16.5503C61.4659 16.5503 42.6411 33.9336 42.6411 55.3771C42.6411 76.8205 61.4659 94.2039 84.6874 94.2039Z" stroke="white"/>
</g>
<g filter="url(#filter7_i)">
<path d="M84.7651 58.2402C105.731 58.2402 122.728 55.145 122.728 51.3268C122.728 47.5087 105.731 44.4134 84.7651 44.4134C63.7989 44.4134 46.8025 47.5087 46.8025 51.3268C46.8025 55.145 63.7989 58.2402 84.7651 58.2402Z" fill="#F3CA20"/>
</g>
<path d="M122.652 51.3268C122.652 51.7784 122.401 52.2274 121.904 52.6698C121.407 53.1124 120.669 53.5426 119.713 53.9545C117.8 54.7782 115.027 55.5218 111.594 56.1468C104.73 57.3968 95.2448 58.1704 84.7652 58.1704C74.2855 58.1704 64.8 57.3968 57.9362 56.1468C54.5037 55.5218 51.7307 54.7782 49.8178 53.9545C48.8612 53.5426 48.1235 53.1124 47.6262 52.6698C47.1291 52.2274 46.8782 51.7784 46.8782 51.3268C46.8782 50.8753 47.1291 50.4263 47.6262 49.9838C48.1235 49.5412 48.8612 49.111 49.8178 48.6992C51.7307 47.8754 54.5037 47.1319 57.9362 46.5069C64.8 45.2569 74.2855 44.4832 84.7652 44.4832C95.2448 44.4832 104.73 45.2569 111.594 46.5069C115.027 47.1319 117.8 47.8754 119.713 48.6992C120.669 49.111 121.407 49.5412 121.904 49.9838C122.401 50.4263 122.652 50.8753 122.652 51.3268Z" stroke="white"/>
<g filter="url(#filter8_d)">
<path d="M104.578 51.3268C104.578 53.988 102.242 55.4469 99.3603 55.4469C96.4785 55.4469 94.1423 53.988 94.1423 51.3268C94.1423 48.6656 96.4785 47.6955 99.3603 47.6955C102.242 47.6955 104.578 48.6656 104.578 51.3268Z" fill="#202431"/>
<path d="M104.501 51.3268C104.501 52.6364 103.927 53.6464 103.001 54.3303C102.073 55.0156 100.786 55.3771 99.3582 55.3771C97.9303 55.3771 96.6436 55.0156 95.7157 54.3303C94.7896 53.6464 94.2158 52.6364 94.2158 51.3268C94.2158 50.0186 94.7881 49.1331 95.7101 48.5715C96.637 48.007 97.9244 47.7654 99.3582 47.7654C100.792 47.7654 102.079 48.007 103.006 48.5715C103.928 49.1331 104.501 50.0186 104.501 51.3268Z" stroke="white"/>
</g>
<g filter="url(#filter9_d)">
<path d="M75.2367 51.3268C75.2367 53.988 72.9006 55.4469 70.0187 55.4469C67.1369 55.4469 64.8008 53.988 64.8008 51.3268C64.8008 48.6656 67.1369 47.6955 70.0187 47.6955C72.9006 47.6955 75.2367 48.6656 75.2367 51.3268Z" fill="#202431"/>
<path d="M75.159 51.3268C75.159 52.6364 74.5851 53.6464 73.6591 54.3303C72.7312 55.0156 71.4445 55.3771 70.0166 55.3771C68.5887 55.3771 67.3021 55.0156 66.3742 54.3303C65.4481 53.6464 64.8743 52.6364 64.8743 51.3268C64.8743 50.0186 65.4466 49.1331 66.3686 48.5715C67.2954 48.007 68.5828 47.7654 70.0166 47.7654C71.4504 47.7654 72.7378 48.007 73.6647 48.5715C74.5866 49.1331 75.159 50.0186 75.159 51.3268Z" stroke="white"/>
</g>
<g filter="url(#filter10_d)">
<path d="M130.202 38.9683L135.55 34.0304L114.16 14.2788L108.813 19.2167L130.202 38.9683Z" fill="#222E59"/>
<path d="M130.203 38.8696L135.443 34.0305L114.161 14.3776L108.92 19.2168L130.203 38.8696Z" stroke="white"/>
</g>
<path d="M142.648 17.9272L147.889 13.0881L137.301 3.31107L132.061 8.15021L142.648 17.9272Z" fill="#222E59" stroke="white"/>
<path d="M133.876 26.0278L139.117 21.1887L128.529 11.4117L123.289 16.2508L133.876 26.0278Z" fill="#222E59" stroke="white"/>
<g filter="url(#filter11_d)">
<path d="M15.4947 32.4861C19.9311 29.9907 22.4721 28.743 23.1174 28.743C23.7628 28.743 24.771 29.5066 26.1423 31.0335C27.5539 32.5605 28.2598 33.9386 28.2598 35.1676V52.5419C28.2598 52.8027 26.6464 53.5289 23.4199 54.7207C20.2336 55.9124 17.5919 56.8063 15.4947 57.4023V63.0447C15.4947 64.4228 15.656 65.4097 15.9786 66.0056C16.3013 66.6016 16.9668 66.8995 17.9751 66.8995V68.6313L5.57295 73.4358L4.60498 71.6481C5.49229 71.6481 6.33927 71.1638 7.14591 70.1955C7.87188 69.2644 8.23487 67.8492 8.23487 65.9497V37.0112C8.23487 34.7393 7.40806 33.4544 5.75445 33.1564V31.9274L11.8648 28.743C12.6714 29.0409 13.4781 29.581 14.2847 30.3632C15.0913 31.1453 15.4947 31.853 15.4947 32.4861ZM17.8541 34.1062C17.1281 34.1062 16.3416 34.3855 15.4947 34.9442V54.7766C16.5433 54.7766 17.7129 54.4786 19.0036 53.8827C20.2941 53.2496 20.9395 52.5978 20.9395 51.9274V38.2402C20.9395 35.4842 19.911 34.1062 17.8541 34.1062Z" fill="#222E59"/>
</g>
<g filter="url(#filter12_d)">
<path d="M153.128 59.4693V33.7151C153.128 32.2253 151.354 31.4804 147.804 31.4804V29.9162C153.048 27.3836 157.726 25 161.84 22.7654L162.808 24.5531C162.646 24.6275 162.425 24.7765 162.142 25C161.86 25.1862 161.497 25.8007 161.053 26.8436C160.61 27.8491 160.388 29.0968 160.388 30.5866V59.8603C160.388 62.7653 160.206 65.4655 159.843 67.9609C159.48 70.4934 159.037 72.4302 158.512 73.7709C157.988 75.149 157.443 75.838 156.879 75.838C155.87 75.838 154.56 75.5586 152.947 75C151.374 74.4413 150.043 73.8827 148.954 73.324L147.32 72.486V70.81H149.377C150.789 70.81 151.757 69.9535 152.281 68.2402C152.846 66.5269 153.128 63.6033 153.128 59.4693Z" fill="#222E59"/>
</g>
</g>
<defs>
<filter id="filter0_d" x="0" y="0" width="178" height="108" filterUnits="userSpaceOnUse" color-interpolation-filters="sRGB">
<feFlood flood-opacity="0" result="BackgroundImageFix"/>
<feColorMatrix in="SourceAlpha" type="matrix" values="0 0 0 0 0 0 0 0 0 0 0 0 0 0 0 0 0 0 127 0"/>
<feOffset dy="4"/>
<feGaussianBlur stdDeviation="2"/>
<feColorMatrix type="matrix" values="0 0 0 0 0 0 0 0 0 0 0 0 0 0 0 0 0 0 0.25 0"/>
<feBlend mode="normal" in2="BackgroundImageFix" result="effect1_dropShadow"/>
<feBlend mode="normal" in="SourceGraphic" in2="effect1_dropShadow" result="shape"/>
</filter>
<filter id="filter1_d" x="104.293" y="18.5544" width="30.6448" height="28.9109" filterUnits="userSpaceOnUse" color-interpolation-filters="sRGB">
<feFlood flood-opacity="0" result="BackgroundImageFix"/>
<feColorMatrix in="SourceAlpha" type="matrix" values="0 0 0 0 0 0 0 0 0 0 0 0 0 0 0 0 0 0 127 0"/>
<feOffset dy="4"/>
<feGaussianBlur stdDeviation="2"/>
<feColorMatrix type="matrix" values="0 0 0 0 0 0 0 0 0 0 0 0 0 0 0 0 0 0 0.25 0"/>
<feBlend mode="normal" in2="BackgroundImageFix" result="effect1_dropShadow"/>
<feBlend mode="normal" in="SourceGraphic" in2="effect1_dropShadow" result="shape"/>
</filter>
<filter id="filter2_d" x="43.0913" y="68.395" width="30.8968" height="39.7585" filterUnits="userSpaceOnUse" color-interpolation-filters="sRGB">
<feFlood flood-opacity="0" result="BackgroundImageFix"/>
<feColorMatrix in="SourceAlpha" type="matrix" values="0 0 0 0 0 0 0 0 0 0 0 0 0 0 0 0 0 0 127 0"/>
<feOffset dy="4"/>
<feGaussianBlur stdDeviation="2"/>
<feColorMatrix type="matrix" values="0 0 0 0 0 0 0 0 0 0 0 0 0 0 0 0 0 0 0.25 0"/>
<feBlend mode="normal" in2="BackgroundImageFix" result="effect1_dropShadow"/>
<feBlend mode="normal" in="SourceGraphic" in2="effect1_dropShadow" result="shape"/>
</filter>
<filter id="filter3_d" x="114.772" y="-0.57962" width="41.3394" height="38.7867" filterUnits="userSpaceOnUse" color-interpolation-filters="sRGB">
<feFlood flood-opacity="0" result="BackgroundImageFix"/>
<feColorMatrix in="SourceAlpha" type="matrix" values="0 0 0 0 0 0 0 0 0 0 0 0 0 0 0 0 0 0 127 0"/>
<feOffset dy="4"/>
<feGaussianBlur stdDeviation="2"/>
<feColorMatrix type="matrix" values="0 0 0 0 0 0 0 0 0 0 0 0 0 0 0 0 0 0 0.25 0"/>
<feBlend mode="normal" in2="BackgroundImageFix" result="effect1_dropShadow"/>
<feBlend mode="normal" in="SourceGraphic" in2="effect1_dropShadow" result="shape"/>
</filter>
<filter id="filter4_d" x="37.5601" y="11.7867" width="25.0399" height="27.594" filterUnits="userSpaceOnUse" color-interpolation-filters="sRGB">
<feFlood flood-opacity="0" result="BackgroundImageFix"/>
<feColorMatrix in="SourceAlpha" type="matrix" values="0 0 0 0 0 0 0 0 0 0 0 0 0 0 0 0 0 0 127 0"/>
<feOffset dy="4"/>
<feGaussianBlur stdDeviation="2"/>
<feColorMatrix type="matrix" values="0 0 0 0 0 0 0 0 0 0 0 0 0 0 0 0 0 0 0.25 0"/>
<feBlend mode="normal" in2="BackgroundImageFix" result="effect1_dropShadow"/>
<feBlend mode="normal" in="SourceGraphic" in2="effect1_dropShadow" result="shape"/>
</filter>
<filter id="filter5_d" x="30.0132" y="16.9106" width="36.2897" height="31.6305" filterUnits="userSpaceOnUse" color-interpolation-filters="sRGB">
<feFlood flood-opacity="0" result="BackgroundImageFix"/>
<feColorMatrix in="SourceAlpha" type="matrix" values="0 0 0 0 0 0 0 0 0 0 0 0 0 0 0 0 0 0 127 0"/>
<feOffset dx="4" dy="4"/>
<feGaussianBlur stdDeviation="2"/>
<feColorMatrix type="matrix" values="0 0 0 0 0 0 0 0 0 0 0 0 0 0 0 0 0 0 0.25 0"/>
<feBlend mode="normal" in2="BackgroundImageFix" result="effect1_dropShadow"/>
<feBlend mode="normal" in="SourceGraphic" in2="effect1_dropShadow" result="shape"/>
</filter>
<filter id="filter6_d" x="38.1411" y="16.0503" width="93.0925" height="86.6536" filterUnits="userSpaceOnUse" color-interpolation-filters="sRGB">
<feFlood flood-opacity="0" result="BackgroundImageFix"/>
<feColorMatrix in="SourceAlpha" type="matrix" values="0 0 0 0 0 0 0 0 0 0 0 0 0 0 0 0 0 0 127 0"/>
<feOffset dy="4"/>
<feGaussianBlur stdDeviation="2"/>
<feColorMatrix type="matrix" values="0 0 0 0 0 0 0 0 0 0 0 0 0 0 0 0 0 0 0.25 0"/>
<feBlend mode="normal" in2="BackgroundImageFix" result="effect1_dropShadow"/>
<feBlend mode="normal" in="SourceGraphic" in2="effect1_dropShadow" result="shape"/>
</filter>
<filter id="filter7_i" x="46.8025" y="44.4134" width="75.9253" height="17.8268" filterUnits="userSpaceOnUse" color-interpolation-filters="sRGB">
<feFlood flood-opacity="0" result="BackgroundImageFix"/>
<feBlend mode="normal" in="SourceGraphic" in2="BackgroundImageFix" result="shape"/>
<feColorMatrix in="SourceAlpha" type="matrix" values="0 0 0 0 0 0 0 0 0 0 0 0 0 0 0 0 0 0 127 0" result="hardAlpha"/>
<feOffset dy="4"/>
<feGaussianBlur stdDeviation="2"/>
<feComposite in2="hardAlpha" operator="arithmetic" k2="-1" k3="1"/>
<feColorMatrix type="matrix" values="0 0 0 0 0 0 0 0 0 0 0 0 0 0 0 0 0 0 0.25 0"/>
<feBlend mode="normal" in2="shape" result="effect1_innerShadow"/>
</filter>
<filter id="filter8_d" x="89.7158" y="47.2654" width="19.2847" height="16.6117" filterUnits="userSpaceOnUse" color-interpolation-filters="sRGB">
<feFlood flood-opacity="0" result="BackgroundImageFix"/>
<feColorMatrix in="SourceAlpha" type="matrix" values="0 0 0 0 0 0 0 0 0 0 0 0 0 0 0 0 0 0 127 0"/>
<feOffset dy="4"/>
<feGaussianBlur stdDeviation="2"/>
<feColorMatrix type="matrix" values="0 0 0 0 0 0 0 0 0 0 0 0 0 0 0 0 0 0 0.25 0"/>
<feBlend mode="normal" in2="BackgroundImageFix" result="effect1_dropShadow"/>
<feBlend mode="normal" in="SourceGraphic" in2="effect1_dropShadow" result="shape"/>
</filter>
<filter id="filter9_d" x="60.3743" y="47.2654" width="19.2847" height="16.6117" filterUnits="userSpaceOnUse" color-interpolation-filters="sRGB">
<feFlood flood-opacity="0" result="BackgroundImageFix"/>
<feColorMatrix in="SourceAlpha" type="matrix" values="0 0 0 0 0 0 0 0 0 0 0 0 0 0 0 0 0 0 127 0"/>
<feOffset dy="4"/>
<feGaussianBlur stdDeviation="2"/>
<feColorMatrix type="matrix" values="0 0 0 0 0 0 0 0 0 0 0 0 0 0 0 0 0 0 0.25 0"/>
<feBlend mode="normal" in2="BackgroundImageFix" result="effect1_dropShadow"/>
<feBlend mode="normal" in="SourceGraphic" in2="effect1_dropShadow" result="shape"/>
</filter>
<filter id="filter10_d" x="104.186" y="13.6992" width="35.992" height="33.8488" filterUnits="userSpaceOnUse" color-interpolation-filters="sRGB">
<feFlood flood-opacity="0" result="BackgroundImageFix"/>
<feColorMatrix in="SourceAlpha" type="matrix" values="0 0 0 0 0 0 0 0 0 0 0 0 0 0 0 0 0 0 127 0"/>
<feOffset dy="4"/>
<feGaussianBlur stdDeviation="2"/>
<feColorMatrix type="matrix" values="0 0 0 0 0 0 0 0 0 0 0 0 0 0 0 0 0 0 0.25 0"/>
<feBlend mode="normal" in2="BackgroundImageFix" result="effect1_dropShadow"/>
<feBlend mode="normal" in="SourceGraphic" in2="effect1_dropShadow" result="shape"/>
</filter>
<filter id="filter11_d" x="0.60498" y="28.743" width="31.6548" height="52.6927" filterUnits="userSpaceOnUse" color-interpolation-filters="sRGB">
<feFlood flood-opacity="0" result="BackgroundImageFix"/>
<feColorMatrix in="SourceAlpha" type="matrix" values="0 0 0 0 0 0 0 0 0 0 0 0 0 0 0 0 0 0 127 0"/>
<feOffset dy="4"/>
<feGaussianBlur stdDeviation="2"/>
<feColorMatrix type="matrix" values="0 0 0 0 0 0 0 0 0 0 0 0 0 0 0 0 0 0 0.25 0"/>
<feBlend mode="normal" in2="BackgroundImageFix" result="effect1_dropShadow"/>
<feBlend mode="normal" in="SourceGraphic" in2="effect1_dropShadow" result="shape"/>
</filter>
<filter id="filter12_d" x="143.32" y="22.7654" width="23.4876" height="61.0726" filterUnits="userSpaceOnUse" color-interpolation-filters="sRGB">
<feFlood flood-opacity="0" result="BackgroundImageFix"/>
<feColorMatrix in="SourceAlpha" type="matrix" values="0 0 0 0 0 0 0 0 0 0 0 0 0 0 0 0 0 0 127 0"/>
<feOffset dy="4"/>
<feGaussianBlur stdDeviation="2"/>
<feColorMatrix type="matrix" values="0 0 0 0 0 0 0 0 0 0 0 0 0 0 0 0 0 0 0.25 0"/>
<feBlend mode="normal" in2="BackgroundImageFix" result="effect1_dropShadow"/>
<feBlend mode="normal" in="SourceGraphic" in2="effect1_dropShadow" result="shape"/>
</filter>
<clipPath id="clip0">
<rect width="170" height="100" fill="white" transform="translate(4)"/>
</clipPath>
</defs>
</svg>
